<svg width="60" height="60" viewBox="0 0 60 60" fill="none" xmlns="http://www.w3.org/2000/svg">
<g clip-path="url(#clip0_53_24)">
<path d="M30 60C46.5685 60 60 46.5685 60 30C60 13.4315 46.5685 0 30 0C13.4315 0 0 13.4315 0 30C0 46.5685 13.4315 60 30 60Z" fill="#1769FF"/>
<path d="M21.1944 16.4064C22.488 16.4064 23.6688 16.5216 24.7368 16.7496C25.8048 16.9776 26.7168 17.352 27.4776 17.8728C28.2384 18.3936 28.8288 19.0848 29.2488 19.9488C29.6688 20.8128 29.8776 21.8784 29.8776 23.148C29.8776 24.5184 29.5656 25.6608 28.944 26.5752C28.3224 27.4896 27.4008 28.2384 26.184 28.8216C27.8592 29.304 29.1096 30.1488 29.9352 31.3536C30.7608 32.5584 31.1736 34.0128 31.1736 35.7144C31.1736 37.0848 30.9072 38.2728 30.3744 39.276C29.8416 40.2792 29.124 41.0976 28.2216 41.7312C27.3192 42.3672 26.292 42.8352 25.1376 43.14C23.976 43.4448 22.7784 43.5984 21.5784 43.596H8.40002V16.4064H21.1944ZM20.4336 27.4104C21.4992 27.4104 22.3752 27.156 23.0616 26.6496C23.748 26.1408 24.0912 25.3176 24.0888 24.1752C24.0888 23.5416 23.9736 23.0208 23.7456 22.6152C23.5176 22.2096 23.2128 21.8904 22.8312 21.6624C22.4496 21.4344 22.0128 21.276 21.5184 21.1872C21.0096 21.0984 20.4936 21.0528 19.9752 21.0552H14.3808V27.4152L20.4336 27.4104ZM20.7768 38.9472C21.3408 38.9496 21.9024 38.892 22.452 38.7768C22.9848 38.6616 23.4552 38.472 23.8608 38.2056C24.2664 37.9392 24.5904 37.5768 24.8328 37.1208C25.0728 36.6648 25.1952 36.0792 25.1952 35.3688C25.1952 33.9744 24.8016 32.976 24.0144 32.3808C23.2272 31.7832 22.1856 31.4856 20.892 31.4856H14.3808V38.9496L20.7768 38.9472ZM38.6952 38.376C39.5064 39.1632 40.6752 39.5568 42.1992 39.5568C43.2912 39.5568 44.2296 39.2832 45.0168 38.7384C45.804 38.1936 46.2864 37.6152 46.464 37.0056H51.2232C50.4624 39.3672 49.2936 41.0544 47.7192 42.0696C46.1448 43.0848 44.2416 43.5936 42.0072 43.5936C40.4592 43.5936 39.0624 43.3464 37.8192 42.852C36.576 42.3576 35.5224 41.652 34.6584 40.7376C33.7944 39.8232 33.1272 38.7336 32.6592 37.464C32.1912 36.1944 31.956 34.7976 31.956 33.276C31.956 31.8048 32.196 30.4344 32.6784 29.1648C33.1608 27.8952 33.8472 26.7984 34.7352 25.872C35.6232 24.9456 36.684 24.216 37.9152 23.6832C39.1464 23.1504 40.512 22.884 42.0096 22.884C43.6848 22.884 45.144 23.208 46.3896 23.856C47.6328 24.504 48.6552 25.3728 49.4544 26.4648C50.2536 27.5568 50.832 28.8 51.1872 30.1968C51.5424 31.5936 51.6696 33.0528 51.5688 34.5768H37.3656C37.44 36.3216 37.884 37.5912 38.6952 38.376ZM44.808 28.02C44.16 27.3096 43.176 26.9544 41.856 26.9544C40.992 26.9544 40.2744 27.1008 39.7056 27.3912C39.1344 27.684 38.6784 28.044 38.3352 28.476C37.992 28.908 37.752 29.364 37.6128 29.8464C37.4736 30.3288 37.3896 30.7608 37.3656 31.14H46.1616C45.9048 29.772 45.4536 28.7304 44.808 28.02ZM36.4392 17.7864H47.4288V20.8344H36.4392V17.7864Z" fill="white"/>
</g>
<defs>
<clipPath id="clip0_53_24">
<rect width="60" height="60" fill="white"/>
</clipPath>
</defs>
</svg>
