<svg width="37" height="59" viewBox="0 0 37 59" fill="none" xmlns="http://www.w3.org/2000/svg">
<g clip-path="url(#clip0_5_109)">
<path d="M9.25 59C14.356 59 18.5 54.5947 18.5 49.1667V39.3334H9.25C4.144 39.3334 0 43.7387 0 49.1667C0 54.5947 4.144 59 9.25 59Z" fill="#0ACF83"/>
<path d="M0 29.5C0 24.072 4.144 19.6666 9.25 19.6666H18.5V39.3333H9.25C4.144 39.3333 0 34.928 0 29.5Z" fill="#A259FF"/>
<path d="M0 9.83333C0 4.40533 4.144 0 9.25 0H18.5V19.6667H9.25C4.144 19.6667 0 15.2613 0 9.83333Z" fill="#F24E1E"/>
<path d="M18.5 0H27.75C32.856 0 37 4.40533 37 9.83333C37 15.2613 32.856 19.6667 27.75 19.6667H18.5V0Z" fill="#FF7262"/>
<path d="M37 29.5C37 34.928 32.856 39.3333 27.75 39.3333C22.644 39.3333 18.5 34.928 18.5 29.5C18.5 24.072 22.644 19.6666 27.75 19.6666C32.856 19.6666 37 24.072 37 29.5Z" fill="#1ABCFE"/>
</g>
<defs>
<clipPath id="clip0_5_109">
<rect width="37" height="59" fill="white"/>
</clipPath>
</defs>
</svg>
