<svg width="61" height="59" viewBox="0 0 61 59" fill="none" xmlns="http://www.w3.org/2000/svg">
<rect x="1.5" y="1.5" width="58" height="56" rx="4.5" fill="#010101" stroke="#FF5722" stroke-width="3"/>
<path d="M33.5082 42L30.9945 34.8633H21.1683L18.6547 42H14.2074L23.7699 16.1953H28.4457L37.9906 42H33.5082ZM29.9047 31.2422L27.4613 24.2109C27.3676 23.9062 27.2328 23.4785 27.057 22.9277C26.8812 22.3652 26.7054 21.7969 26.5297 21.2227C26.3539 20.6367 26.2074 20.1445 26.0902 19.7461C25.973 20.2266 25.8265 20.7656 25.6508 21.3633C25.4867 21.9492 25.3226 22.5 25.1586 23.0156C25.0062 23.5312 24.889 23.9297 24.807 24.2109L22.3461 31.2422H29.9047ZM45.0922 22.541V42H40.9613V22.541H45.0922ZM43.0531 15.0879C43.6859 15.0879 44.2308 15.2578 44.6879 15.5977C45.1566 15.9375 45.391 16.5234 45.391 17.3555C45.391 18.1758 45.1566 18.7617 44.6879 19.1133C44.2308 19.4531 43.6859 19.623 43.0531 19.623C42.3969 19.623 41.8402 19.4531 41.3832 19.1133C40.9379 18.7617 40.7152 18.1758 40.7152 17.3555C40.7152 16.5234 40.9379 15.9375 41.3832 15.5977C41.8402 15.2578 42.3969 15.0879 43.0531 15.0879Z" fill="#FF5722"/>
</svg>
