<svg width="59" height="59" viewBox="0 0 59 59" fill="none" xmlns="http://www.w3.org/2000/svg">
<g clip-path="url(#clip0_5_129)">
<path d="M50.2708 50.2715H41.5289V36.5809C41.5289 33.3163 41.4706 29.1137 36.9821 29.1137C32.429 29.1137 31.7324 32.6706 31.7324 36.3433V50.2706H22.9905V22.1172H31.3827V25.9647H31.5002C33.2114 23.0388 36.3933 21.2912 39.7805 21.417C48.6408 21.417 50.2745 27.245 50.2745 34.827L50.2708 50.2715ZM13.1266 18.2689C10.3248 18.2694 8.05315 15.9984 8.05265 13.1966C8.05214 10.3948 10.323 8.12302 13.1248 8.12251C15.9266 8.12201 18.1983 10.3929 18.1988 13.1948C18.199 14.5403 17.6648 15.8307 16.7136 16.7823C15.7623 17.7339 14.4721 18.2686 13.1266 18.2689ZM17.4976 50.2715H8.74654V22.1172H17.4976V50.2715ZM54.6291 0.00415523H4.35371C1.97759 -0.0226598 0.0290297 1.8807 3.05176e-05 4.25684V54.7418C0.0280369 57.1191 1.97644 59.0244 4.35371 58.9994H54.6291C57.011 59.0289 58.9671 57.1238 59 54.7418V4.2532C58.9661 1.87237 57.0099 -0.0308877 54.6291 0.000129652" fill="#0A66C2"/>
</g>
<defs>
<clipPath id="clip0_5_129">
<rect width="59" height="59" fill="white"/>
</clipPath>
</defs>
</svg>
