<svg width="60" height="63" viewBox="0 0 60 63" fill="none" xmlns="http://www.w3.org/2000/svg">
<g clip-path="url(#clip0_53_13)">
<path d="M3.77168 2.7124L38.4586 0.142937C42.7192 -0.22383 43.8142 0.0234757 46.493 1.97677L57.5656 9.80043C59.3919 11.1459 60 11.5127 60 12.9777V55.8852C60 58.5741 59.0263 60.1649 55.6182 60.408L15.3375 62.8538C12.7798 62.9753 11.5616 62.6086 10.2222 60.8963L2.06868 50.2621C0.605976 48.3047 0 46.8397 0 45.1274V6.98785C0 4.78935 0.973741 2.95551 3.77168 2.7124Z" fill="white"/>
<path d="M38.4586 0.142937L3.77168 2.7124C0.973741 2.95551 0 4.78935 0 6.98785V45.1274C0 46.8397 0.605976 48.3047 2.06868 50.2621L10.2222 60.8963C11.5616 62.6086 12.7798 62.9753 15.3375 62.8538L55.6182 60.408C59.0242 60.1649 60 58.5741 60 55.8852V12.9777C60 11.5882 59.4525 11.1879 57.8415 10.0016C57.7488 9.93465 57.6561 9.86759 57.5636 9.80043L46.493 1.97677C43.8142 0.0234757 42.7192 -0.22383 38.4586 0.142937ZM16.2485 12.2756C12.9595 12.4977 12.2136 12.548 10.3455 11.0244L5.59588 7.23516C5.11319 6.74474 5.35558 6.13276 6.57171 6.01121L39.9171 3.56749C42.7171 3.32228 44.1757 4.30102 45.2706 5.15612L50.9898 9.31211C51.2342 9.43576 51.8423 10.1672 51.111 10.1672L16.6748 12.2462L16.2485 12.2756ZM12.4142 55.5184V19.0933C12.4142 17.5025 12.901 16.769 14.3595 16.6453L53.911 14.3232C55.2525 14.2016 55.8585 15.0567 55.8585 16.6453V52.8274C55.8585 54.4181 55.614 55.7637 53.4241 55.8852L15.5757 58.0858C13.3858 58.2074 12.4142 57.4759 12.4142 55.5184ZM49.7757 21.0466C50.0181 22.1469 49.7757 23.2472 48.6787 23.3729L46.8545 23.7355V50.6289C45.2706 51.484 43.8121 51.9723 42.5939 51.9723C40.6464 51.9723 40.1595 51.3604 38.701 49.5286L26.7716 30.704V48.9166L30.5454 49.7738C30.5454 49.7738 30.5454 51.9744 27.5009 51.9744L19.1071 52.4627C18.8626 51.9723 19.1071 50.7505 19.9575 50.5074L22.1495 49.8975V25.8166L19.1071 25.5693C18.8626 24.469 19.4706 22.8804 21.1757 22.7567L30.1818 22.1489L42.5939 41.2166V24.3475L39.4302 23.9828C39.1858 22.6352 40.1595 21.6564 41.3756 21.537L49.7757 21.0466Z" fill="black"/>
</g>
<defs>
<clipPath id="clip0_53_13">
<rect width="60" height="63" fill="white"/>
</clipPath>
</defs>
</svg>
