<svg width="59" height="59" viewBox="0 0 59 59" fill="none" xmlns="http://www.w3.org/2000/svg">
<circle cx="29.5" cy="29.5" r="29" fill="#010101" stroke="#FFF7F7"/>
<g clip-path="url(#clip0_36_156)">
<path d="M9 22.0182C9 22.0182 10.6252 21.8154 11.7087 22.7648C12.3775 23.3505 12.5724 24.2839 12.5724 24.2839L14.785 32.805L16.6253 25.831C16.8041 25.0897 17.1274 24.1729 17.6382 23.5533C18.2902 22.7642 19.6136 22.7143 19.7548 22.7143C19.8959 22.7143 21.2187 22.7642 21.87 23.5533C22.3808 24.1729 22.7041 25.0891 22.8835 25.831L24.7238 32.805L26.9358 24.2839C26.9358 24.2839 27.1314 23.3505 27.8002 22.7648C28.8837 21.8154 30.5082 22.0182 30.5082 22.0182L26.2711 37.9428C26.2711 37.9428 24.8737 38.0432 24.174 37.6889C23.2552 37.2235 22.819 36.8645 22.2625 34.6971C21.9812 33.5886 21.7034 32.4792 21.429 31.369L21.3249 30.9508C21.0311 29.7661 20.7381 28.586 20.5318 27.765L20.4309 27.3661C20.3382 27.0044 20.2743 26.7611 20.2515 26.688C20.189 26.4879 20.1144 26.0112 19.7541 26.0112C19.4019 26.0112 19.3206 26.4885 19.2567 26.688C19.2332 26.7611 19.1693 27.0038 19.0773 27.3661L18.9764 27.765C18.7618 28.6182 18.549 29.4718 18.3379 30.3259L18.2344 30.7421C17.9089 32.0616 17.5796 33.3802 17.2464 34.6978C16.6899 36.8645 16.253 37.2241 15.3342 37.6889C14.6345 38.0432 13.2371 37.9428 13.2371 37.9428L9 22.0182ZM34.5396 24.6596V25.2347H34.541V34.8474C34.5336 36.8199 34.3407 37.2581 33.5019 37.7121C32.8499 38.0652 31.8525 37.9315 31.8525 37.9315V27.1633C31.8525 26.6228 32.0218 26.2685 32.6462 25.9507C33.0193 25.7605 33.3668 25.6149 33.7284 25.3995C34.2224 25.107 34.4731 24.7593 34.5282 24.6769L34.5396 24.6596ZM35.8852 22.0714C35.8852 22.0714 38.0744 21.6878 39.1585 22.703C39.7681 23.2741 40.4423 24.2474 40.5949 24.4721L40.6238 24.5146L40.6271 24.52L42.536 27.3495C42.6281 27.4964 42.7491 27.6566 42.9426 27.6566C43.1355 27.6566 43.2572 27.4971 43.3499 27.3495L45.2581 24.52L45.2615 24.5146L45.2904 24.4721C45.443 24.2474 46.1171 23.2741 46.7274 22.7023C47.8109 21.6878 50 22.0707 50 22.0707L44.8132 30.0061L49.9859 37.9156C49.9859 37.9156 47.7463 38.2121 46.6622 37.1969C45.9686 36.548 45.2581 35.4916 45.2581 35.4916L43.3493 32.6628C43.2572 32.5152 43.1355 32.355 42.9426 32.355C42.7491 32.355 42.6281 32.5145 42.5353 32.6628L40.6271 35.4916C40.6271 35.4916 39.9557 36.548 39.2627 37.1969C38.1786 38.2121 35.8987 37.9156 35.8987 37.9156L41.0714 30.0061L35.8852 22.0714ZM34.5343 22.0003H34.541C34.541 23.0573 34.4402 23.6856 33.7949 24.1736C33.4954 24.4013 33.1651 24.5864 32.8136 24.7234C32.4572 24.8609 32.1309 25.065 31.8525 25.3244C31.8525 23.3991 32.1368 22.7017 32.901 22.2888C33.3762 22.0322 34.1565 22.0029 34.4368 22.0003H34.5343Z" fill="white"/>
</g>
<defs>
<clipPath id="clip0_36_156">
<rect width="41" height="16" fill="white" transform="translate(9 22)"/>
</clipPath>
</defs>
</svg>
