<svg width="62" height="60" viewBox="0 0 62 60" fill="none" xmlns="http://www.w3.org/2000/svg">
<rect y="1" width="61.5385" height="58.9744" rx="11" fill="#FF41C8"/>
<path d="M53.3797 39.2981C53.3776 39.2511 53.3754 39.2046 53.3733 39.1586C53.3499 38.6516 53.3292 38.2019 53.3292 37.7949V13.3333V13.2713L53.314 13.2112C53.2492 12.954 52.9729 12.601 52.5334 12.6538H47.3267C47.1416 12.6538 46.9184 12.7093 46.7531 12.8987C46.5992 13.0749 46.5683 13.2857 46.5683 13.4359L53.3797 39.2981ZM15.9548 14.988L15.9059 14.9638L15.8529 14.9506C15.7353 14.9214 15.5602 14.8846 15.3708 14.8846H9.50667C9.37058 14.8846 9.05917 14.9108 8.85889 15.1727C8.70385 15.3567 8.70962 15.5749 8.73699 15.7017C8.76405 15.827 8.82236 15.935 8.88227 16.0194L16.5432 28.8933L8.67173 41.7054C8.60943 41.8008 8.56666 41.9077 8.54609 42.02C8.52812 42.118 8.52745 42.2183 8.54392 42.3163C8.54978 42.3899 8.57032 42.4971 8.64033 42.6013C8.75754 42.7758 8.93107 42.8293 9.04396 42.8405C9.12839 42.8489 9.20932 42.8359 9.21446 42.8353C9.22239 42.8342 9.22733 42.8336 9.23006 42.8333H14.9058C15.0447 42.8333 15.2535 42.8307 15.4501 42.7552C15.6751 42.6687 15.8461 42.5049 15.949 42.273C16.3422 41.5768 16.7366 40.8563 17.1291 40.1392C17.3268 39.7781 17.524 39.4179 17.7203 39.062L17.7204 39.0621L17.7247 39.0539C18.2918 37.9792 18.885 36.8786 19.4793 35.7757L19.4816 35.7714C19.9315 34.9366 20.3843 34.0962 20.8155 33.2539C21.2927 34.1142 21.7696 34.9623 22.2457 35.809L22.2458 35.8092C22.8644 36.9092 23.4548 37.9793 23.9929 39.022C24.2654 39.5629 24.5441 40.0969 24.8209 40.6272L24.8217 40.6288C25.0997 41.1614 25.3758 41.6902 25.6451 42.2249L25.6618 42.258L25.6831 42.2882C26.0314 42.7821 26.5911 42.7821 26.9687 42.7821H26.97H32.8858H32.9269L32.9598 42.7766C32.9601 42.7766 32.9604 42.7766 32.9607 42.7767C32.9657 42.777 32.9721 42.7776 32.9857 42.779L32.9893 42.7793C33.0007 42.7805 33.0223 42.7828 33.0433 42.7842L33.0461 42.7844C33.0818 42.7868 33.215 42.7959 33.3542 42.7286C33.5394 42.639 33.6234 42.4776 33.6549 42.3529C33.722 42.0863 33.6435 41.8543 33.5649 41.6981L33.5554 41.6793L33.5444 41.6614L25.438 28.4608L33.0054 16.0675C33.0554 16.0067 33.0957 15.94 33.1241 15.8781C33.1427 15.8375 33.1687 15.7721 33.1801 15.6926C33.1848 15.6601 33.1999 15.5434 33.1497 15.4142C33.0388 15.0597 32.6889 14.874 32.3598 14.9103H26.9855C26.7732 14.8802 26.5562 14.9196 26.3673 15.0234L26.3494 15.0333L26.3324 15.0446C26.1341 15.1758 26.0358 15.3777 25.988 15.5273C25.7602 15.9494 25.5353 16.3736 25.3099 16.799C24.9735 17.4337 24.6358 18.0709 24.2847 18.7072L24.2836 18.7092C23.6902 19.7848 23.0941 20.8651 22.5236 21.9461C22.0982 22.7522 21.6718 23.5746 21.2556 24.4126C20.8382 23.5957 20.4023 22.7887 19.9375 21.9813L19.9376 21.9813L19.933 21.9736C19.4086 21.0992 18.9189 20.2255 18.4173 19.3305C18.3064 19.1325 18.1948 18.9335 18.0822 18.7332C17.4912 17.6363 16.9304 16.5478 16.4476 15.4633L16.4243 15.411L16.3898 15.3652C16.2881 15.2307 16.1547 15.0872 15.9548 14.988ZM9.07194 41.8451C9.07203 41.845 9.0741 41.8448 9.07775 41.8445C9.07366 41.845 9.07185 41.8451 9.07194 41.8451ZM42.8214 27.3453L42.8214 27.3453L42.8265 27.3428C43.65 26.9224 44.5774 26.7308 45.5183 26.7308C45.7747 26.7308 46.0348 26.7538 46.3207 26.7796C46.4019 26.7886 46.4838 26.8014 46.5683 26.8168V37.3054C46.4396 37.3267 46.3135 37.3324 46.1764 37.322L46.1383 37.3191L46.1003 37.322C45.7651 37.3475 45.4201 37.3718 45.0533 37.3718C44.3772 37.3718 43.7075 37.2759 43.0662 37.0638L43.0663 37.0636L43.0552 37.0603C42.4635 36.8795 41.9373 36.5631 41.4999 36.1532C41.0403 35.6955 40.6927 35.1448 40.4589 34.5187C40.1699 33.7293 40.0267 32.8956 40.0506 32.0657L40.0508 32.0585V32.0513C40.0508 30.7838 40.3215 29.7911 40.8144 29.0796C41.334 28.3293 42.0179 27.7441 42.8214 27.3453ZM0.5 10.8974C0.5 5.15145 5.18095 0.5 10.9792 0.5H51.0208C56.819 0.5 61.5 5.15145 61.5 10.8974V49.1026C61.5 54.8485 56.819 59.5 51.0208 59.5H10.9792C5.18095 59.5 0.5 54.8485 0.5 49.1026V10.8974Z" fill="#010101" stroke="#FF41C8"/>
</svg>
